<?xml version="1.0" encoding="UTF-8"?>
<svg version="1.1" xmlns="http://www.w3.org/2000/svg" width="128" height="128">
<path d="M0 0 C42.24 0 84.48 0 128 0 C128 42.24 128 84.48 128 128 C85.76 128 43.52 128 0 128 C0 85.76 0 43.52 0 0 Z " fill="#126D66" transform="translate(0,0)"/>
<path d="M0 0 C1 2 1 2 0.28735352 4.70556641 C-0.28607788 6.38658447 -0.28607788 6.38658447 -0.87109375 8.1015625 C-1.28037109 9.31328125 -1.68964844 10.525 -2.11132812 11.7734375 C-2.55322497 13.0573469 -2.99528438 14.34120036 -3.4375 15.625 C-3.87633534 16.91643434 -4.31449509 18.20809846 -4.75195312 19.5 C-5.82799273 22.66899576 -6.91094543 25.83545812 -8 29 C-4.04 29 -0.08 29 4 29 C4 31.64 4 34.28 4 37 C-0.62 37 -5.24 37 -10 37 C-10 40.3 -10 43.6 -10 47 C-6.37 47 -2.74 47 1 47 C-1.14475244 50.95954297 -3.30364338 54.41437206 -6.1875 57.875 C-9.4345806 62.0463126 -9.97593419 65.80178601 -10 71 C-12.31 71 -14.62 71 -17 71 C-17.27634277 71.58426758 -17.55268555 72.16853516 -17.83740234 72.77050781 C-18.95065424 74.90537054 -20.1695526 76.74032676 -21.6015625 78.671875 C-22.09140625 79.33574219 -22.58125 79.99960938 -23.0859375 80.68359375 C-23.84777344 81.70646484 -23.84777344 81.70646484 -24.625 82.75 C-25.140625 83.44738281 -25.65625 84.14476563 -26.1875 84.86328125 C-27.45559119 86.57755267 -28.7274289 88.28905156 -30 90 C-31 88 -31 88 -30.30322266 85.85888672 C-29.9272998 84.97475098 -29.55137695 84.09061523 -29.1640625 83.1796875 C-23.08792691 68.17495783 -20.54280233 55.18567251 -21 39 C-23.31 39 -25.62 39 -28 39 C-28 38.67 -28 38.34 -28 38 C-30.31 37.67 -32.62 37.34 -35 37 C-35 34.36 -35 31.72 -35 29 C-33.65808594 29.11794922 -33.65808594 29.11794922 -32.2890625 29.23828125 C-26.6779692 29.35193879 -22.5744458 29.3834693 -18.23046875 25.56640625 C-16.03069658 22.84581846 -14.14059109 19.92783229 -12.27685547 16.97021484 C-9.97756664 13.42236382 -7.40164516 10.07504902 -4.875 6.6875 C-3.24525402 4.46175578 -1.62291409 2.23073552 0 0 Z " fill="#FFC800" transform="translate(79,23)"/>
<path d="M0 0 C4.62 0 9.24 0 14 0 C16.13827368 5.81997151 18.27446387 11.64070172 20.40869141 17.4621582 C21.13565169 19.44414142 21.86318989 21.42591276 22.59130859 23.4074707 C23.63529553 26.24896168 24.67722969 29.09119789 25.71875 31.93359375 C26.04685669 32.82525742 26.37496338 33.71692108 26.7130127 34.63560486 C27.01332397 35.45638016 27.31363525 36.27715546 27.62304688 37.12280273 C27.88952026 37.84894272 28.15599365 38.5750827 28.43054199 39.32322693 C29 41 29 41 29 42 C25.37 42 21.74 42 18 42 C16 38 16 38 16 35 C10.06 35 4.12 35 -2 35 C-2.495 37.475 -2.495 37.475 -3 40 C-3.33 40.66 -3.66 41.32 -4 42 C-7.63 42 -11.26 42 -15 42 C-10.1741224 27.92988575 -5.31258658 13.89445721 0 0 Z " fill="#F9FBFB" transform="translate(19,52)"/>
<path d="M0 0 C0 2.97 0 5.94 0 9 C-0.94875 8.67 -1.8975 8.34 -2.875 8 C-7.77287981 6.58772791 -14.32479446 5.66239723 -19 8 C-18.67 9.65 -18.34 11.3 -18 13 C-16.90300781 13.29132813 -15.80601563 13.58265625 -14.67578125 13.8828125 C-13.22104038 14.2957712 -11.76663013 14.70989584 -10.3125 15.125 C-9.59126953 15.31320313 -8.87003906 15.50140625 -8.12695312 15.6953125 C-2.66799377 17.29062482 -0.11816145 19.20189885 3 24 C4.21527304 28.52896784 3.3799897 32.21079061 1.375 36.375 C-2.13707467 40.25676675 -5.37185578 41.81909509 -10.5859375 42.3984375 C-17.7435173 42.35416381 -23.52550169 42.17118285 -30 39 C-30 36.03 -30 33.06 -30 30 C-28.741875 30.495 -27.48375 30.99 -26.1875 31.5 C-20.81758923 33.30989043 -15.6244321 33.5222687 -10 33 C-8.70366379 31.93354885 -8.70366379 31.93354885 -8.9375 29.4375 C-8.958125 28.633125 -8.97875 27.82875 -9 27 C-10.53720703 26.54560547 -10.53720703 26.54560547 -12.10546875 26.08203125 C-13.46640028 25.65967319 -14.82706353 25.23644997 -16.1875 24.8125 C-16.86103516 24.61591797 -17.53457031 24.41933594 -18.22851562 24.21679688 C-22.93617776 22.72412352 -25.77520251 20.90498077 -29 17 C-30.63333319 12.10000043 -30.69486987 8.44532932 -28.4375 3.75 C-21.27310703 -4.33290489 -9.46942071 -3.57417233 0 0 Z " fill="#F6F9F9" transform="translate(117,53)"/>
<path d="M0 0 C2.64 0 5.28 0 8 0 C7.67 2.31 7.34 4.62 7 7 C11.95 7.33 16.9 7.66 22 8 C19.85524756 11.95954297 17.69635662 15.41437206 14.8125 18.875 C11.5654194 23.0463126 11.02406581 26.80178601 11 32 C8.69 32 6.38 32 4 32 C3.72365723 32.58426758 3.44731445 33.16853516 3.16259766 33.77050781 C2.04934576 35.90537054 0.8304474 37.74032676 -0.6015625 39.671875 C-1.09140625 40.33574219 -1.58125 40.99960938 -2.0859375 41.68359375 C-2.84777344 42.70646484 -2.84777344 42.70646484 -3.625 43.75 C-4.140625 44.44738281 -4.65625 45.14476562 -5.1875 45.86328125 C-6.45559119 47.57755267 -7.7274289 49.28905156 -9 51 C-10 49 -10 49 -9.30322266 46.85888672 C-8.9272998 45.97475098 -8.55137695 45.09061523 -8.1640625 44.1796875 C-2.08792691 29.17495783 0.45719767 16.18567251 0 0 Z " fill="#FFC800" transform="translate(58,62)"/>
<path d="M0 0 C1.65322266 0.01740234 1.65322266 0.01740234 3.33984375 0.03515625 C4.99693359 0.04869141 4.99693359 0.04869141 6.6875 0.0625 C7.54214844 0.07410156 8.39679688 0.08570313 9.27734375 0.09765625 C9.27734375 2.73765625 9.27734375 5.37765625 9.27734375 8.09765625 C4.65734375 8.09765625 0.03734375 8.09765625 -4.72265625 8.09765625 C-3.708977 0.13303361 -3.708977 0.13303361 0 0 Z " fill="#F7FAFA" transform="translate(73.72265625,51.90234375)"/>
<path d="M0 0 C0.66 0 1.32 0 2 0 C3.65 5.28 5.3 10.56 7 16 C3.37 16 -0.26 16 -4 16 C-3.39891424 10.34979382 -1.92471317 5.33835539 0 0 Z " fill="#227770" transform="translate(25,63)"/>
<path d="M0 0 C4.62 0 9.24 0 14 0 C9.17970402 7.71247357 9.17970402 7.71247357 5.8203125 8.53125 C3.625 8.5 3.625 8.5 0 8 C0 5.36 0 2.72 0 0 Z " fill="#F9FBFB" transform="translate(44,52)"/>
<path d="M0 0 C2.64 0 5.28 0 8 0 C5.69 6.93 3.38 13.86 1 21 C0.67 21 0.34 21 0 21 C0 14.07 0 7.14 0 0 Z " fill="#FAFCFC" transform="translate(58,62)"/>
<path d="M0 0 C0.33 0 0.66 0 1 0 C1 2.64 1 5.28 1 8 C-0.98 8 -2.96 8 -5 8 C-1.125 1.125 -1.125 1.125 0 0 Z " fill="#F1F6F6" transform="translate(68,86)"/>
<path d="M0 0 C0.33 0 0.66 0 1 0 C1 3.3 1 6.6 1 10 C-0.32 9.67 -1.64 9.34 -3 9 C-2.01 6.03 -1.02 3.06 0 0 Z " fill="#E9F1F0" transform="translate(68,60)"/>
</svg>
